<svg xmlns="http://www.w3.org/2000/svg" viewBox="0 0 758 128" width="758" height="128" role="img" aria-label="Portale dei Futuri Medici "><g transform="translate(64,64) scale(0.8800) translate(0,5.5)"><g fill="#030208" stroke="#2BE0E0" stroke-width="3.4" stroke-linejoin="round"><g transform="translate(-30.0,0) rotate(-16.0) scale(0.820)"><path d="M -20,-8 C -21,6 -13,21 -5,30 L -3,36 Q 0,39 3,36 L 5,30 C 13,21 21,6 20,-8 C 20,-23 12,-31 0,-31 C -12,-31 -20,-23 -20,-8 Z M -15,-27 L -23,-49 L -6,-37 Z M 15,-27 L 23,-49 L 6,-37 Z"/></g></g><g fill="#030208" stroke="#FFB23E" stroke-width="3.4" stroke-linejoin="round"><g transform="translate(30.0,0) rotate(16.0) scale(0.820)"><path d="M -20,-8 C -21,6 -13,21 -5,30 L -3,36 Q 0,39 3,36 L 5,30 C 13,21 21,6 20,-8 C 20,-23 12,-31 0,-31 C -12,-31 -20,-23 -20,-8 Z M -15,-27 L -23,-49 L -6,-37 Z M 15,-27 L 23,-49 L 6,-37 Z"/></g></g><g fill="#030208" stroke="#C04BFF" stroke-width="3.4" stroke-linejoin="round"><g transform="translate(0.0,0) rotate(0.0) scale(1.000)"><path d="M -20,-8 C -21,6 -13,21 -5,30 L -3,36 Q 0,39 3,36 L 5,30 C 13,21 21,6 20,-8 C 20,-23 12,-31 0,-31 C -12,-31 -20,-23 -20,-8 Z M -15,-27 L -23,-49 L -6,-37 Z M 15,-27 L 23,-49 L 6,-37 Z"/></g></g></g><text x="146" y="64" dominant-baseline="central" font-family="-apple-system,BlinkMacSystemFont,'Segoe UI',Roboto,'Helvetica Neue',Arial,sans-serif" font-size="40" letter-spacing="-1"><tspan fill="#201B2E" font-weight="800">Portale dei Futuri Medici</tspan><tspan fill="#6B6480" font-weight="500"> </tspan></text></svg>