<svg xmlns="http://www.w3.org/2000/svg" viewBox="0 0 128 128" width="512" height="512" role="img" aria-label="Marchio"><rect width="128" height="128" rx="28" fill="#14102A"/><g transform="translate(64,64) scale(0.880) translate(0,5.5)"><g fill="#030208" stroke="#2BE0E0" stroke-width="3.4" stroke-linejoin="round"><g transform="translate(-30.0,0) rotate(-16.0) scale(0.820)"><path d="M -20,-8 C -21,6 -13,21 -5,30 L -3,36 Q 0,39 3,36 L 5,30 C 13,21 21,6 20,-8 C 20,-23 12,-31 0,-31 C -12,-31 -20,-23 -20,-8 Z M -15,-27 L -23,-49 L -6,-37 Z M 15,-27 L 23,-49 L 6,-37 Z"/></g></g><g fill="#030208" stroke="#FFB23E" stroke-width="3.4" stroke-linejoin="round"><g transform="translate(30.0,0) rotate(16.0) scale(0.820)"><path d="M -20,-8 C -21,6 -13,21 -5,30 L -3,36 Q 0,39 3,36 L 5,30 C 13,21 21,6 20,-8 C 20,-23 12,-31 0,-31 C -12,-31 -20,-23 -20,-8 Z M -15,-27 L -23,-49 L -6,-37 Z M 15,-27 L 23,-49 L 6,-37 Z"/></g></g><g fill="#030208" stroke="#C04BFF" stroke-width="3.4" stroke-linejoin="round"><g transform="translate(0.0,0) rotate(0.0) scale(1.000)"><path d="M -20,-8 C -21,6 -13,21 -5,30 L -3,36 Q 0,39 3,36 L 5,30 C 13,21 21,6 20,-8 C 20,-23 12,-31 0,-31 C -12,-31 -20,-23 -20,-8 Z M -15,-27 L -23,-49 L -6,-37 Z M 15,-27 L 23,-49 L 6,-37 Z"/></g></g></g></svg>